name D:\school\WTK\thesis\model\3dpredictsim\Results\debug_batch\Pog_s1_tmt_bCst_d05_k1000_ig24_pas.mot
datacolumns 128
datarows 4
range 0.00000000 0.03317834
endheader
time	pelvis_tilt	pelvis_list	pelvis_rotation	pelvis_tx	pelvis_ty	pelvis_tz	hip_flexion_l	hip_adduction_l	hip_rotation_l	hip_flexion_r	hip_adduction_r	hip_rotation_r	knee_angle_l	knee_angle_r	ankle_angle_l	ankle_angle_r	subtalar_angle_l	subtalar_angle_r	tmt_angle_l	tmt_angle_r	mtp_angle_l	mtp_angle_r	lumbar_extension	lumbar_bending	lumbar_rotation	arm_flex_l	arm_add_l	arm_rot_l	arm_flex_r	arm_add_r	arm_rot_r	elbow_flex_l	elbow_flex_r	pro_sup_l	pro_sup_r	glut_med1_l/activation	glut_med2_l/activation	glut_med3_l/activation	glut_min1_l/activation	glut_min2_l/activation	glut_min3_l/activation	semimem_l/activation	semiten_l/activation	bifemlh_l/activation	bifemsh_l/activation	sar_l/activation	add_long_l/activation	add_brev_l/activation	add_mag1_l/activation	add_mag2_l/activation	add_mag3_l/activation	tfl_l/activation	pect_l/activation	grac_l/activation	glut_max1_l/activation	glut_max2_l/activation	glut_max3_l/activation	iliacus_l/activation	psoas_l/activation	quad_fem_l/activation	gem_l/activation	peri_l/activation	rect_fem_l/activation	vas_med_l/activation	vas_int_l/activation	vas_lat_l/activation	med_gas_l/activation	lat_gas_l/activation	soleus_l/activation	tib_post_l/activation	flex_dig_l/activation	flex_hal_l/activation	tib_ant_l/activation	per_brev_l/activation	per_long_l/activation	per_tert_l/activation	ext_dig_l/activation	ext_hal_l/activation	ercspn_l/activation	intobl_l/activation	extobl_l/activation	glut_med1_r/activation	glut_med2_r/activation	glut_med3_r/activation	glut_min1_r/activation	glut_min2_r/activation	glut_min3_r/activation	semimem_r/activation	semiten_r/activation	bifemlh_r/activation	bifemsh_r/activation	sar_r/activation	add_long_r/activation	add_brev_r/activation	add_mag1_r/activation	add_mag2_r/activation	add_mag3_r/activation	tfl_r/activation	pect_r/activation	grac_r/activation	glut_max1_r/activation	glut_max2_r/activation	glut_max3_r/activation	iliacus_r/activation	psoas_r/activation	quad_fem_r/activation	gem_r/activation	peri_r/activation	rect_fem_r/activation	vas_med_r/activation	vas_int_r/activation	vas_lat_r/activation	med_gas_r/activation	lat_gas_r/activation	soleus_r/activation	tib_post_r/activation	flex_dig_r/activation	flex_hal_r/activation	tib_ant_r/activation	per_brev_r/activation	per_long_r/activation	per_tert_r/activation	ext_dig_r/activation	ext_hal_r/activation	ercspn_r/activation	intobl_r/activation	extobl_r/activation	
          0.00000000	         -2.92689449	         -2.47789328	          5.98061763	          0.00000000	          0.85534966	         -0.00321853	        -18.54742897	         -2.07502178	          7.35130783	         32.00851465	          3.24557978	         -2.97825983	         -7.36794076	        -14.94851677	          0.19555079	          6.12416245	         10.72694817	         -3.22354711	          1.76536574	          0.03178934	         22.43454705	         -0.11777587	         -2.14737592	          0.92371553	         -2.00960505	          8.13606870	        -13.46321041	         18.23776886	         -8.78914708	        -13.55621775	          8.03673967	         37.67941796	         13.23819909	         86.51662706	         86.51662706	          0.25213940	          0.09833631	          0.06601689	          0.30410836	          0.19818337	          0.09861113	          0.05000230	          0.05000037	          0.05000027	          0.07917492	          0.11237483	          0.08302770	          0.05000062	          0.05000066	          0.05000161	          0.05000134	          0.32460215	          0.05000587	          0.05000083	          0.05000635	          0.05000391	          0.05000216	          0.43193836	          0.66106392	          0.05000027	          0.05000103	          0.05000033	          0.24789383	          0.11773377	          0.05013737	          0.05039598	          0.31900400	          0.43484634	          0.30084061	          0.27639831	          0.28481406	          0.37108177	          0.05000004	          0.06752827	          0.17605894	          0.05000034	          0.05000009	          0.05000026	          0.05000002	          0.05000003	          0.05000005	          0.05000047	          0.05000045	          0.05000338	          0.05000048	          0.05000052	          0.05000138	          0.05921605	          0.05921507	          0.31198325	          0.05000055	          0.05000100	          0.11022314	          0.17231250	          0.20544523	          0.17163025	          0.12432072	          0.05000828	          0.05117482	          0.05921760	          0.05000348	          0.08177257	          0.11796024	          0.05205003	          0.05695773	          0.19629285	          0.05000452	          0.05000195	          0.05256918	          0.13128203	          0.13270542	          0.11356834	          0.05223192	          0.05000164	          0.05921616	          0.05000011	          0.05000232	          0.05001367	          0.52890341	          0.37379209	          0.22025630	          0.31872845	          0.56606293	          0.28377245	          0.06779510	          0.09999485	          0.09836772	
          0.01105945	         -2.91826297	         -2.57173250	          6.25419218	          0.01689286	          0.85426519	         -0.00300129	        -18.34950535	         -2.39198636	          7.16206651	         31.39262726	          3.64339143	         -2.79993733	         -9.45187730	        -14.86430554	         -0.67227799	          5.56182887	         11.77217451	         -3.73107357	          1.50565576	          0.04257993	         23.54486886	         -0.10496263	         -1.92662893	          1.15166148	         -2.09932220	          7.90575217	        -13.48240332	         18.41719490	         -9.94329830	        -13.54822637	          7.86398764	         38.91189993	         13.16381590	         86.51662706	         86.51662706	          0.21289744	          0.08303164	          0.05921866	          0.25677822	          0.16733891	          0.08326372	          0.05000464	          0.05000058	          0.05000073	          0.06685245	          0.09488569	          0.16405067	          0.10884745	          0.07003480	          0.05001031	          0.05000328	          0.27408260	          0.10393693	          0.05020398	          0.05000401	          0.05000248	          0.05000231	          0.36471308	          0.60222446	          0.05002003	          0.05947466	          0.05921661	          0.20931255	          0.10188281	          0.16340279	          0.16340263	          0.26935533	          0.36716840	          0.25401884	          0.23338099	          0.24048731	          0.31332839	          0.05000003	          0.05701852	          0.15717543	          0.05000015	          0.05000004	          0.05000019	          0.05318627	          0.07013112	          0.05000012	          0.05003025	          0.05000208	          0.05000081	          0.05000205	          0.05000198	          0.05000093	          0.05000015	          0.05000028	          0.27396908	          0.05000032	          0.05000290	          0.09306885	          0.14549467	          0.27337260	          0.20214666	          0.12237675	          0.05000035	          0.05000351	          0.05000185	          0.05921606	          0.08206047	          0.13835300	          0.05000026	          0.05000081	          0.51225404	          0.11649558	          0.10154138	          0.07013104	          0.21015236	          0.21373436	          0.18488787	          0.05000001	          0.05000003	          0.05000000	          0.05000030	          0.05921978	          0.05000143	          0.60676192	          0.31561677	          0.21810619	          0.51229803	          0.60416318	          0.26894362	          0.05724373	          0.08443201	          0.08305813	
          0.02211889	         -2.90545119	         -2.66549222	          6.49971085	          0.03407251	          0.85318386	         -0.00279421	        -18.06158347	         -2.69743521	          6.96372990	         30.64272647	          3.97773299	         -2.54674039	        -11.68234214	        -15.30873765	         -1.72615311	          4.95824349	         12.75828552	         -4.26974000	          1.23809332	         -0.03126489	         24.48037548	         -0.15103425	         -1.68489515	          1.38427850	         -2.17746799	          7.58325146	        -13.50199558	         18.51805332	        -11.10897216	        -13.54366155	          7.73596969	         40.12021891	         13.13347069	         86.51662706	         86.51662706	          0.30009252	          0.07010893	          0.05000264	          0.21681456	          0.14129497	          0.07030490	          0.05000334	          0.05000067	          0.05000070	          0.05644783	          0.08011846	          0.17188263	          0.18567001	          0.05921680	          0.05921429	          0.05003103	          0.23142631	          0.08779256	          0.05225165	          0.05006717	          0.05009836	          0.05921065	          0.30795052	          0.55813723	          0.05921605	          0.05021956	          0.05000044	          0.17673589	          0.13796891	          0.13797177	          0.13797160	          0.22743380	          0.31002360	          0.21448423	          0.19705844	          0.20305890	          0.26456320	          0.05000004	          0.05000078	          0.20169430	          0.05000014	          0.05000013	          0.05000025	          0.06401483	          0.05921618	          0.05000020	          0.29646186	          0.05000023	          0.35718648	          0.05000061	          0.05000050	          0.29356356	          0.08309825	          0.05000139	          0.23133031	          0.05000037	          0.05000104	          0.08305697	          0.20188287	          0.23082661	          0.19328871	          0.15872878	          0.05000086	          0.05926942	          0.14243447	          0.05000034	          0.06928908	          0.12185020	          0.05262847	          0.05000078	          0.43252866	          0.09836480	          0.19562431	          0.05921612	          0.17744517	          0.18046980	          0.15611276	          0.05921642	          0.05921648	          0.05921627	          0.05921607	          0.05000339	          0.05921531	          0.51232764	          0.40794668	          0.20752241	          0.43256654	          0.60161034	          0.22708626	          0.05250710	          0.09836694	          0.07013126	
          0.03317834	         -2.89059866	         -2.75679850	          6.70964655	          0.05134455	          0.85211943	         -0.00257060	        -17.66811652	         -2.98603819	          6.76219159	         29.77584602	          4.27367522	         -2.27614115	        -14.06115036	        -15.80408031	         -2.93756392	          4.59235523	         13.66844587	         -4.81737717	          0.95635371	         -0.01550859	         25.13973837	         -0.17139361	         -1.44165077	          1.61787875	         -2.24635121	          7.19805796	        -13.52672270	         18.55569766	        -12.23424500	        -13.54138407	          7.67018746	         41.28740273	         13.11115699	         86.51662706	         86.51662706	          0.25338756	          0.05919747	          0.05000005	          0.28099483	          0.11930442	          0.05936296	          0.05000433	          0.05000021	          0.05000018	          0.05000028	          0.06765001	          0.17085052	          0.15677348	          0.05000095	          0.05000099	          0.05000065	          0.22793790	          0.07413068	          0.05000052	          0.05000108	          0.05000067	          0.05000042	          0.26002224	          0.50441874	          0.05000009	          0.05000037	          0.05000020	          0.14922936	          0.11649803	          0.11649871	          0.11649870	          0.19203680	          0.26177261	          0.18110265	          0.16638900	          0.17145570	          0.22338764	          0.09249428	          0.15077959	          0.17030389	          0.05000522	          0.16327358	          0.05000188	          0.09126427	          0.05000002	          0.05000006	          0.34953978	          0.31900479	          0.42135379	          0.21045340	          0.19806379	          0.24787507	          0.07035928	          0.11372101	          0.19532690	          0.07013287	          0.05000202	          0.07013035	          0.17046258	          0.19490203	          0.17707730	          0.17817281	          0.05000040	          0.05004565	          0.12026905	          0.24337426	          0.18964952	          0.16854365	          0.05000015	          0.05000018	          0.36521154	          0.08305620	          0.16517865	          0.05000008	          0.14982886	          0.21079235	          0.14973458	          0.05000020	          0.05000028	          0.05000006	          0.05000001	          0.05000076	          0.05000034	          0.64151982	          0.37910149	          0.19322924	          0.67338092	          0.66959076	          0.36309578	          0.07891779	          0.08305756	          0.05921629	
